<svg width="20" height="17" viewBox="0 0 20 17" fill="none" xmlns="http://www.w3.org/2000/svg">
<path d="M18.1818 0.199951H1.81818C0.818182 0.199951 0 1.03295 0 2.05106V4.82773H1.81818V2.05106H18.1818V15.0088H11.8182V16.86H18.1818C19.1818 16.86 20 16.027 20 15.0088V2.05106C20 1.03295 19.1818 0.199951 18.1818 0.199951ZM0 14.0833V16.86H2.72727C2.72727 15.3235 1.50909 14.0833 0 14.0833ZM0 10.3811V12.2322C2.50909 12.2322 4.54545 14.3054 4.54545 16.86H6.36364C6.36364 13.2781 3.51818 10.3811 0 10.3811ZM0 6.67884V8.52995C1.07445 8.52995 2.13838 8.74541 3.13105 9.16403C4.12371 9.58266 5.02567 10.1962 5.78542 10.9698C6.54517 11.7433 7.14784 12.6616 7.55901 13.6722C7.97019 14.6828 8.18182 15.766 8.18182 16.86H10C10 11.2326 5.51818 6.67884 0 6.67884Z" fill="white"/>
</svg>
